<svg width="140" height="172" viewBox="0 0 140 172" fill="none" xmlns="http://www.w3.org/2000/svg">
<path d="M119.261 114.641C123.769 115.258 128.374 114.17 131.973 111.385C137.628 107.011 143.026 97.777 137.196 78.7026C126.534 43.8271 100.058 16.4677 62.3141 17.5094C24.57 18.5511 2.03269 52.8822 19.1091 101.153C36.1856 149.423 60.2589 157.988 73.8854 137.209C86.5383 117.912 103.282 112.453 119.263 114.642L119.261 114.641Z" fill="#6528F7"/>
<path d="M76.4863 31.2355C76.4863 31.2355 75.8423 31.3117 75.7342 32.1012C75.6262 32.8908 76.55 33.9256 78.6745 33.9394C78.6745 33.9394 81.1785 34.0212 81.0178 32.9421C80.8572 31.863 80.0151 31.3089 76.4863 31.2355Z" fill="white" stroke="black" stroke-miterlimit="10"/>
<path d="M76.2439 29.184C76.2439 29.184 75.4254 29.2809 75.2883 30.2838C75.1512 31.2867 76.3243 32.5999 79.0235 32.6179C79.0235 32.6179 82.2048 32.7218 81.9998 31.3519C81.7948 29.9819 80.7256 29.2768 76.2453 29.1854L76.2439 29.184Z" fill="white" stroke="black" stroke-miterlimit="10"/>
<path d="M76.0763 26.9663C76.0763 26.9663 75.0833 27.0674 74.9199 28.1354C74.7565 29.2034 76.183 30.608 79.457 30.6357C79.457 30.6357 83.3155 30.7562 83.0634 29.2948C82.81 27.8334 81.5123 27.0785 76.0763 26.9676V26.9663Z" fill="white" stroke="black" stroke-miterlimit="10"/>
<path d="M86.9981 14.7265C84.7836 11.384 80.2492 10.3811 76.8381 12.488C75.4379 13.3524 74.172 14.8152 73.607 17.2712C73.607 17.2712 72.8951 19.3822 74.6748 21.895C75.7911 23.4686 76.2107 25.4342 75.9434 27.3444C75.9019 27.6381 76.0473 27.929 76.309 28.0689C77.248 28.5703 79.5595 29.5913 81.6716 28.8239C81.9015 28.7407 82.0732 28.5454 82.1272 28.3072L82.1535 28.1936C82.5842 26.2806 83.767 24.6391 85.4026 23.5559C86.9607 22.5239 88.5589 20.4267 87.7612 16.2295C87.7612 16.2295 87.5631 15.5798 86.9995 14.7293L86.9981 14.7265Z" fill="#FFF200" stroke="black" stroke-miterlimit="10"/>
<path d="M79.4709 29.2505C79.475 29.0275 79.3448 20.712 81.1411 21.0348C83.2407 21.4116 81.4084 24.2554 78.4986 22.7095C75.5888 21.1636 78.4405 19.6454 78.9958 20.6566C79.6828 21.9088 78.6247 28.1132 77.8712 28.7324" stroke="black" stroke-miterlimit="10"/>
<path d="M84.9276 8.24094L86.8956 2.66684" stroke="black" stroke-width="4" stroke-miterlimit="10" stroke-linecap="round"/>
<path d="M91.4272 11.6029L97.0127 9.67049" stroke="black" stroke-width="4" stroke-miterlimit="10" stroke-linecap="round"/>
<path d="M92.0462 20.8547L97.5445 23.0212" stroke="black" stroke-width="4" stroke-miterlimit="10" stroke-linecap="round"/>
<path d="M65.6754 12.5185L71.4714 13.6724" stroke="black" stroke-width="4" stroke-miterlimit="10" stroke-linecap="round"/>
<path d="M69.8247 2.11414L73.499 6.74353" stroke="black" stroke-width="4" stroke-miterlimit="10" stroke-linecap="round"/>
<path d="M104.151 60.9608C103.766 60.814 103.57 61.0328 103.372 61.3196C102.92 61.9748 102.439 62.6106 101.968 63.2533C101.692 63.6301 101.395 63.752 100.96 63.5872C100.226 63.3074 99.4987 63.0054 98.7827 62.6812C98.3838 62.5012 98.2689 62.231 98.3339 61.7919C98.4683 60.8763 98.6151 59.9634 98.7425 59.0478C98.7564 58.9508 98.6843 58.84 98.64 58.7403C98.622 58.7001 98.5638 58.678 98.5389 58.6392C98.2702 58.2195 97.9046 58.1876 97.4448 58.2859C96.6983 58.4452 95.938 58.538 95.1846 58.6586C94.8023 58.7195 94.4838 58.5935 94.3217 58.2347C93.9894 57.4964 93.6763 56.7484 93.3883 55.9906C93.2332 55.582 93.3606 55.2856 93.7165 55.0251C94.4381 54.4974 95.1569 53.9682 95.884 53.4488C96.0252 53.3477 96.046 53.2341 96.0723 53.0734C96.161 52.5165 95.9366 52.1785 95.4657 51.8877C94.8646 51.5164 94.3134 51.0648 93.7428 50.6465C93.355 50.3639 93.2332 50.0716 93.4035 49.6214C93.6777 48.8928 93.9741 48.1725 94.2954 47.4647C94.4879 47.0394 94.7829 46.9314 95.2497 47.0075C96.1623 47.1544 97.0764 47.2943 97.9905 47.437C98.0293 47.4425 98.0874 47.4633 98.1068 47.4453C98.2661 47.2984 98.4046 47.1267 98.5763 46.9992C98.7799 46.8482 98.7785 46.6792 98.7397 46.4535C98.5902 45.5822 98.46 44.7067 98.3284 43.8312C98.2716 43.4586 98.3921 43.1649 98.737 43.0112C99.4904 42.6746 100.253 42.3546 101.026 42.0637C101.414 41.9169 101.701 42.0471 101.95 42.3851C102.489 43.1178 103.029 43.8492 103.562 44.5862C103.654 44.7122 103.745 44.7704 103.903 44.7441C104.021 44.7247 104.149 44.7095 104.263 44.7372C104.566 44.8092 104.723 44.6624 104.885 44.4296C105.358 43.7495 105.856 43.086 106.346 42.4169C106.626 42.0346 106.916 41.9155 107.35 42.0789C108.063 42.3477 108.771 42.633 109.466 42.9475C109.94 43.1622 110.056 43.4309 109.977 43.9448C109.846 44.8037 109.71 45.6611 109.565 46.5172C109.531 46.7111 109.599 46.8261 109.713 46.9826C110.041 47.437 110.438 47.4619 110.943 47.3525C111.672 47.1945 112.418 47.1031 113.157 46.9923C113.51 46.9397 113.794 47.0726 113.971 47.3857C114.39 48.124 114.708 48.9039 114.938 49.7184C115.041 50.0813 114.928 50.3778 114.617 50.6063C113.884 51.1438 113.15 51.6812 112.411 52.2118C112.286 52.3018 112.265 52.403 112.24 52.5484C112.135 53.1482 112.4 53.5 112.895 53.8062C113.496 54.1774 114.046 54.629 114.618 55.0473C114.945 55.287 115.057 55.5515 114.916 55.9283C114.635 56.6791 114.341 57.4271 114.014 58.1585C113.798 58.642 113.548 58.7472 113.02 58.6683C112.153 58.5367 111.287 58.3982 110.423 58.2541C110.249 58.225 110.106 58.2333 110.006 58.3954C110.002 58.4023 109.997 58.4078 109.99 58.412C109.515 58.7112 109.502 59.1295 109.61 59.6324C109.767 60.3624 109.857 61.1076 109.973 61.8459C110.027 62.1895 109.891 62.4845 109.581 62.6605C108.843 63.0788 108.066 63.4043 107.247 63.626C106.882 63.7257 106.585 63.5941 106.364 63.288C105.892 62.6369 105.406 61.9942 104.946 61.3334C104.745 61.0439 104.554 60.7987 104.155 60.958L104.151 60.9608ZM100.885 52.8185C100.879 54.6234 102.341 56.0987 104.142 56.1084C105.944 56.1167 107.421 54.6525 107.43 52.8504C107.44 51.0316 105.973 49.5508 104.162 49.5494C102.36 49.548 100.892 51.0136 100.886 52.8199L100.885 52.8185Z" fill="#FFF200" stroke="black" stroke-miterlimit="10"/>
<path d="M27.5117 106.348C32.0979 103.091 31.5864 94.4929 26.3694 87.1423C21.1524 79.7917 13.2053 76.4725 8.61917 79.7288C4.03301 82.985 4.54443 91.5835 9.76145 98.9341C14.9785 106.285 22.9255 109.604 27.5117 106.348Z" fill="black"/>
<path d="M28.833 105.357C33.4192 102.101 32.9078 93.5021 27.6908 86.1515C22.4737 78.8009 14.5267 75.4818 9.94052 78.738C5.35436 81.9942 5.86576 90.5927 11.0828 97.9433C16.2998 105.294 24.2469 108.613 28.833 105.357Z" fill="white" stroke="black" stroke-miterlimit="10"/>
<path d="M27.0041 101.157C30.3186 98.8042 29.9491 92.5903 26.1791 87.2784C22.409 81.9665 16.6658 79.568 13.3514 81.9213C10.037 84.2746 10.4064 90.4884 14.1765 95.8003C17.9466 101.112 23.6897 103.511 27.0041 101.157Z" fill="#6528F7"/>
<path d="M26.1292 99.3403C28.7138 97.5051 28.2564 92.4208 25.1075 87.9841C21.9586 83.5475 17.3106 81.4385 14.726 83.2736C12.1413 85.1088 12.5987 90.1931 15.7476 94.6298C18.8965 99.0665 23.5445 101.175 26.1292 99.3403Z" fill="white" stroke="black" stroke-miterlimit="10"/>
<path d="M24.4695 96.2885C26.1485 95.0963 25.851 91.793 23.8051 88.9103C21.7591 86.0276 18.7393 84.6571 17.0603 85.8492C15.3813 87.0413 15.6787 90.3447 17.7247 93.2274C19.7707 96.1101 22.7904 97.4806 24.4695 96.2885Z" fill="#6528F7"/>
<path d="M23.3663 93.9654C24.3699 93.2529 24.1924 91.2789 22.9699 89.5565C21.7475 87.8341 19.943 87.0155 18.9394 87.728C17.9359 88.4406 18.1133 90.4145 19.3358 92.1369C20.5582 93.8592 22.3628 94.6779 23.3663 93.9654Z" fill="white" stroke="black" stroke-miterlimit="10"/>
<path d="M34.8103 71.9345L30.8023 76.7841L30.3771 80.0546L33.8242 79.5213L38.3766 74.6924L35.2078 74.3378L34.8103 71.9345Z" fill="#FFF200" stroke="black" stroke-miterlimit="10"/>
<path d="M20.8722 90.6418L35.3394 73.9126C35.4488 73.7865 35.6427 73.781 35.759 73.9015C35.8615 74.0081 35.8643 74.1744 35.7673 74.2852L21.1215 91.0269L20.8708 90.6418H20.8722Z" fill="black"/>
<path d="M55.9876 12.15C55.9876 12.15 13.2701 14.7515 8.68872 60.1241" stroke="black" stroke-miterlimit="10"/>
<path d="M49.9105 46.4424L37.878 44.3562L40.0579 56.3743C39.3516 56.5032 38.6217 56.5683 37.878 56.5683C31.1347 56.5683 25.6669 51.1008 25.6669 44.3549C25.6669 37.6089 31.1333 32.1414 37.878 32.1414C44.6227 32.1414 50.0891 37.6089 50.0891 44.3549C50.0891 45.0669 50.0282 45.765 49.9118 46.441L49.9105 46.4424Z" fill="white" stroke="black" stroke-miterlimit="10"/>
<path d="M40.0247 46.912L42.2046 58.9301L42.9303 58.8663C48.0837 58.4175 52.1042 54.212 52.3203 49.0424L40.0247 46.9106V46.912Z" fill="#FFF200" stroke="black" stroke-miterlimit="10"/>
<path d="M55.3201 152.059L53.9393 158.969L60.8225 160.642L62.7351 153.841C63.3112 151.792 62.0731 149.674 60.0054 149.171L59.8918 149.144C57.8157 148.639 55.7383 149.964 55.3201 152.058V152.059Z" fill="white" stroke="black" stroke-miterlimit="10"/>
<g style="mix-blend-mode:multiply">
<path d="M54.3077 157.125L47.7084 159.021C45.6032 159.627 43.9856 161.314 43.4677 163.442L59.2838 167.288L61.3391 158.834L54.3077 157.125Z" fill="black"/>
</g>
<path d="M54.2648 157.412C54.2648 157.412 58.7797 154.477 59.0581 156.118C59.3379 157.761 56.5209 158.948 54.2648 157.412Z" stroke="black" stroke-miterlimit="10"/>
<path d="M54.2647 157.412C54.2647 157.412 51.7981 154.057 50.7511 156.118C49.7041 158.179 51.1403 159.008 54.2647 157.412Z" stroke="black" stroke-miterlimit="10"/>
<path d="M76.2744 155.191L76.5653 164.536H83.6479L83.9 155.164C83.9762 152.341 82.2727 149.998 80.1454 149.998H80.029C77.8935 149.998 76.1872 152.359 76.2744 155.191Z" fill="white" stroke="black" stroke-miterlimit="10"/>
<g style="mix-blend-mode:multiply">
<path d="M76.4877 162.656L70.5241 166.058C68.6226 167.143 67.4481 169.165 67.4481 171.355H83.7241V162.655H76.4877V162.656Z" fill="black"/>
</g>
<path d="M76.7661 162.764C76.7661 162.764 81.281 159.829 81.5594 161.471C81.8391 163.113 79.0221 164.301 76.7661 162.764Z" stroke="black" stroke-miterlimit="10"/>
<path d="M76.7661 162.764C76.7661 162.764 74.2995 159.409 73.2525 161.471C72.2054 163.532 73.6416 164.36 76.7661 162.764Z" stroke="black" stroke-miterlimit="10"/>
<path d="M87.8678 94.9844C86.9468 89.9478 74.0502 91.056 67.7043 91.9162C65.602 92.2015 63.8403 94.0674 63.2351 96.6481C61.4914 104.08 58.0055 119.287 57.4072 124.567C56.6039 131.665 54.8727 147.24 54.9447 148.555C55.2522 154.154 58.4833 156.225 63.3583 153.826C64.7073 153.162 65.7044 151.681 66.0451 149.892L69.4632 131.92C69.4632 131.92 69.9784 130.74 70.6917 128.991V128.989C71.301 127.493 72.0517 125.58 72.7428 123.633C72.8993 126.019 73.0475 128.127 73.2829 129.551C73.9574 133.643 74.474 147.431 74.6623 153.05C74.7329 155.179 75.8035 157.064 77.3851 157.761C78.7161 158.347 80.5414 158.494 82.8405 157.197C84.285 156.383 85.2281 154.576 85.2752 152.566L85.8693 127.249C85.8693 127.249 89.0935 101.685 87.8692 94.9844H87.8678Z" fill="#D7BBF5" stroke="black" stroke-miterlimit="10"/>
<path d="M68.0686 103.064C68.0686 103.064 66.6365 109.111 68.671 111.894C70.7055 114.677 73.1125 121.949 72.7026 123.41C72.2927 124.872 69.8468 131.024 69.8468 131.024C69.8468 131.024 70.4188 123.525 69.4244 120.867C67.1642 114.821 64.8582 116.26 64.9413 111.414C65.0161 106.982 68.0686 103.064 68.0686 103.064Z" fill="black"/>
<path d="M82.5344 91.2568C82.5344 91.2568 83.328 104.919 82.1217 110.677C80.9154 116.436 78.3033 118.483 79.5096 127.696C80.7159 136.909 80.0207 158.163 80.0207 158.163" stroke="black" stroke-miterlimit="10"/>
<path d="M70.8052 96.2034C70.8052 96.2034 73.1749 97.5776 76.2356 98.1635C78.5568 98.6082 81.1287 98.3256 82.2353 98.1635C82.5995 98.1095 82.9693 98.1385 83.3224 98.2438C84.5453 98.6123 87.5036 99.3368 88.1254 97.9516V94.5218L70.8066 96.202L70.8052 96.2034Z" fill="black"/>
<path d="M61.2754 95.8419L89.8996 96.9293V81.4634L64.4871 78.1735L61.2754 95.8419Z" fill="#FFF200" stroke="black" stroke-miterlimit="10"/>
<path d="M94.7718 77.1387C92.1501 75.9225 89.1586 75.4695 86.44 76.4489C83.1147 77.6457 80.7049 78.294 78.4308 80.3995C77.9793 80.8165 77.8823 82.5064 77.2854 82.6518C76.8824 82.7502 75.9988 82.9289 75.5889 82.879C72.1666 82.4746 69.0602 82.0354 65.6366 81.631C65.1685 79.2041 64.4746 75.3379 64.0079 72.9097C62.1922 72.5149 60.3779 72.1201 58.5623 71.7253C58.5664 71.7253 58.9251 71.0549 59.3004 70.3539C59.6771 69.6544 60.0732 68.9244 60.1522 68.8039C60.7713 67.855 61.4665 66.9574 62.2255 66.1166C63.6187 64.579 65.2308 63.2409 67.0008 62.1618C67.1642 62.0593 67.329 61.9623 67.4938 61.8667C70.7706 59.9884 74.564 59.1185 78.2674 58.5588C78.6565 58.5006 80.0041 59.7612 80.3503 59.57C87.5036 60.904 89.1365 64.9724 91.6224 68.7665C93.6763 71.9012 93.873 73.5011 94.7732 77.1387H94.7718Z" fill="#FFF200" stroke="black" stroke-miterlimit="10"/>
<path d="M48.7388 85.54L45.1421 68.9728C44.9441 68.06 45.7626 67.251 46.6725 67.4602L64.2254 71.4829C64.7253 71.5978 65.1076 71.9995 65.1962 72.5051L66.7778 81.5215L80.4695 83.2405C81.2838 83.3431 81.896 84.0357 81.896 84.8571C81.896 85.5054 81.5123 86.0913 80.9196 86.3504L68.5893 91.7388C68.1392 91.9355 67.6323 91.9647 67.1628 91.8206L49.5324 86.4002C49.1321 86.2769 48.8288 85.9473 48.7402 85.5386L48.7388 85.54Z" fill="#D7BBF5" stroke="black" stroke-miterlimit="10"/>
<path d="M66.6711 81.5229L68.124 89.1028L80.6772 83.9165C81.004 83.7836 80.9417 83.3029 80.5913 83.2586L66.6725 81.5243L66.6711 81.5229Z" fill="black"/>
<path d="M46.0077 68.7665L62.8736 72.555C63.5606 72.7088 64.0924 73.2532 64.2323 73.943L67.1808 90.0988" stroke="black" stroke-miterlimit="10"/>
<path d="M89.3927 86.3656C83.8986 86.4002 77.284 83.7614 75.1415 82.3222C73.9574 81.5257 73.0128 80.768 73.0696 79.3398C73.1195 78.0765 74.1111 76.7883 75.9489 76.7606C79.3615 76.7135 82.4361 77.6789 82.5663 77.7205C82.5676 77.7219 82.5704 77.7219 82.5704 77.7219C82.5704 77.7219 88.7695 73.5898 94.6666 76.9185C95.1402 79.5393 95.7538 86.324 89.3927 86.3642V86.3656Z" fill="#D7BBF5" stroke="black" stroke-miterlimit="10"/>
<path d="M77.0708 78.0904C76.6304 77.7676 76.057 77.6859 75.5294 77.8244C74.8355 78.0073 73.596 78.2898 72.8647 78.2109C71.8066 78.0973 70.0283 77.9463 69.3677 79.2692C68.7057 80.5934 68.1573 82.7863 68.1573 82.7863C68.1573 82.7863 68.0063 83.8446 68.9896 83.3722C68.9896 83.3722 69.0173 84.0953 69.6087 83.9789C69.8095 83.9401 69.9785 83.8016 70.081 83.6243L70.1613 83.4844C70.1613 83.4844 70.4064 84.4305 70.9936 84.1839C71.5795 83.9387 71.6363 83.012 71.6363 83.012C71.6363 83.012 71.7304 84.0523 72.3163 83.749C72.7124 83.5453 72.97 82.7294 73.096 82.2197C73.1486 82.0078 73.3744 81.89 73.578 81.9703C74.3729 82.2834 76.1803 82.8264 77.1041 81.775C78.0749 80.6683 78.1912 78.9076 77.0722 78.0862L77.0708 78.0904Z" fill="white" stroke="black" stroke-miterlimit="10"/>
<path d="M68.9868 83.3736C68.9868 83.3736 69.6544 79.869 70.6626 79.4146L68.9868 83.3736Z" fill="white"/>
<path d="M68.9868 83.3736C68.9868 83.3736 69.6544 79.869 70.6626 79.4146" stroke="black" stroke-miterlimit="10" stroke-linecap="round"/>
<path d="M70.1599 83.4871C70.1599 83.4871 70.3177 81.0353 71.452 79.7748L70.1599 83.4871Z" fill="white"/>
<path d="M70.1599 83.4871C70.1599 83.4871 70.3177 81.0353 71.452 79.7748" stroke="black" stroke-miterlimit="10" stroke-linecap="round"/>
<path d="M71.6348 83.1976C71.6348 83.1976 71.6348 81.5839 72.3785 80.5256L71.6348 83.1976Z" fill="white"/>
<path d="M71.6348 83.1976C71.6348 83.1976 71.6348 81.5839 72.3785 80.5256" stroke="black" stroke-miterlimit="10" stroke-linecap="round"/>
<path d="M66.9994 62.1618C63.8902 66.8646 63.3265 71.2765 63.3265 71.2765L59.3005 70.3539C59.6772 69.6544 60.0733 68.9244 60.1522 68.8039C60.7713 67.855 61.4665 66.9574 62.2255 66.1166C63.6188 64.579 65.2308 63.2409 67.0008 62.1618H66.9994Z" fill="black"/>
<path d="M62.2795 90.3218L61.2754 95.8419L89.8996 96.9293V86.3656" stroke="black" stroke-miterlimit="10"/>
<path d="M70.5352 45.729C71.3842 43.6387 72.3356 43.0292 76.3077 43.3201C80.2797 43.611 81.6785 45.6985 81.9056 47.3843C82.2602 50.0162 81.1135 51.0551 81.835 51.8239C82.5566 52.5927 83.677 53.4543 83.677 55.1194C83.677 56.7844 79.5443 58.3303 79.5443 58.3303C79.5443 58.3303 75.1554 54.7287 74.377 52.6384C73.5987 50.5481 69.7582 47.642 70.5352 45.729Z" fill="black"/>
<path d="M79.1911 56.0585C79.7839 58.4591 80.5498 61.6589 80.4764 61.9221C80.3573 62.3474 78.6095 66.5044 75.3756 66.5044C74.1333 66.5044 73.0115 66.0265 72.2151 65.0458C71.7553 64.482 71.5144 63.8781 71.4077 63.252C71.3288 62.7921 71.326 62.3197 71.3662 61.8418C71.4133 61.2683 71.524 60.6935 71.639 60.1214C71.254 59.9898 70.9036 59.8083 70.5823 59.5756C70.5781 59.5742 70.5767 59.5714 70.5754 59.57H70.5712C70.0837 59.2154 69.6682 58.7514 69.3178 58.1876C68.4661 56.8204 68.2209 54.9822 68.3262 53.4072C68.4398 51.7173 68.3539 49.9567 69.1018 48.4135C69.5796 47.4286 70.3828 46.5061 71.5227 46.3523C72.5683 46.211 73.6236 46.1113 74.6776 46.0961C75.4352 46.0864 76.4199 45.9409 77.0168 46.5227C77.2453 46.7457 77.3755 47.0477 77.496 47.3428C78.104 48.8166 78.3629 50.3833 78.8075 51.9154C79.1898 51.3294 80.1177 51.1327 80.6744 51.8835C81.4361 52.9044 80.842 54.1843 79.8989 54.8866C79.7701 54.9822 79.5983 55.057 79.4155 55.1027C79.3712 55.4227 79.2964 55.7441 79.1898 56.0585H79.1911Z" fill="white" stroke="black" stroke-miterlimit="10"/>
<path d="M70.1183 53.1343C70.3684 53.1343 70.5712 52.9315 70.5712 52.6814C70.5712 52.4312 70.3684 52.2284 70.1183 52.2284C69.8682 52.2284 69.6654 52.4312 69.6654 52.6814C69.6654 52.9315 69.8682 53.1343 70.1183 53.1343Z" fill="#231F20"/>
<path d="M73.848 53.3103C74.0981 53.3103 74.3009 53.1075 74.3009 52.8573C74.3009 52.6071 74.0981 52.4043 73.848 52.4043C73.5979 52.4043 73.3951 52.6071 73.3951 52.8573C73.3951 53.1075 73.5979 53.3103 73.848 53.3103Z" fill="#231F20"/>
<path d="M71.6182 53.3103C71.6182 53.3103 70.5767 54.5099 70.6792 55.2426C70.7692 55.8909 72.2318 55.5834 72.2318 55.5834" stroke="#231F20" stroke-miterlimit="10" stroke-linecap="round"/>
<path d="M72.0766 57.9701C72.0766 57.9701 73.2774 58.1502 74.0239 57.2775" stroke="#231F20" stroke-miterlimit="10" stroke-linecap="round"/>
<path d="M80.3171 48.4565C79.1953 47.2984 76.5112 43.6401 71.8439 45.9769C71.8439 45.9769 72.2594 43.5916 69.9673 44.1582C67.6766 44.7247 68.196 46.2845 67.275 46.7568C66.354 47.2292 64.771 47.6738 65.6684 48.9745C66.4426 50.0966 67.7943 50.5634 68.1517 50.67C68.2071 50.6867 68.2403 50.695 68.2403 50.695C68.2403 50.695 68.3926 50.7975 68.394 50.7892C68.6959 50.7587 68.5575 49.8389 68.8067 49.3292C69.412 48.0949 70.2748 47.8982 70.2983 47.8941C70.3413 47.8899 70.3842 47.8871 70.4285 47.8885C71.7705 47.9245 71.9824 48.9164 72.6915 48.6684C73.4006 48.4205 74.1083 47.7112 75.3133 48.0658C77.4876 48.7058 76.1054 52.8337 78.0984 52.777C78.23 52.7728 78.3518 52.7008 78.4155 52.5858C79.6842 50.3293 80.9694 52.1688 80.9389 52.5678C81.263 52.5387 81.3904 49.5674 80.3129 48.4565H80.3171Z" fill="black"/>
<path d="M70.574 59.57L71.085 59.836C70.8025 59.7155 70.6252 59.6047 70.5823 59.5756C70.5781 59.5742 70.5767 59.5714 70.5754 59.57H70.574Z" fill="#040404"/>
<path d="M77.9031 57.4811C77.9031 57.4811 77.5084 62.6092 71.4077 63.2519C71.3288 62.7921 71.326 62.3197 71.3662 61.8418C71.4133 61.2683 71.5365 60.609 71.6528 60.0355C71.6528 60.0355 75.0086 60.976 77.9045 57.4811H77.9031Z" fill="#040404"/>
<path d="M82.5663 77.7205C82.5663 77.7205 80.0415 70.3899 80.0415 68.3274L80.1301 77.1401L82.5649 77.7205H82.5663Z" fill="black"/>
<path d="M103.5 171.434H59.9473" stroke="#231F20" stroke-miterlimit="10" stroke-linecap="round"/>
<path d="M58.8033 171.434H46.3027" stroke="#231F20" stroke-miterlimit="10" stroke-linecap="round"/>
<path d="M45.0078 171.434H37.8545" stroke="#231F20" stroke-miterlimit="10" stroke-linecap="round"/>
<path d="M50.2692 88.4753C50.2692 88.4753 48.5851 87.6719 49.4188 85.6314C50.2539 83.591 50.7941 82.9109 51.7067 83.1589C51.7067 83.1589 53.4324 81.2819 53.6388 82.0465C53.8243 82.735 52.6651 82.9746 51.8148 85.0912C51.589 85.655 51.2899 86.367 51.83 86.4515C51.9533 86.4709 54.2551 83.8099 54.6969 83.2752C55.1373 82.7419 55.8021 83.066 55.4156 83.7005C55.068 84.2698 52.9435 87.0084 52.8964 87.2868C52.8493 87.5652 54.9212 85.7561 55.3533 85.6952C55.7023 85.6453 55.9405 86.0359 55.3381 86.5138C54.7356 86.9931 52.9767 88.2274 54.6885 88.0127C55.5541 87.9046 56.4197 88.8161 56.6663 89.4353C56.9142 90.0531 56.0486 90.3163 55.4295 90.193C54.8187 90.0711 53.0806 89.5433 52.4782 89.2496C51.8757 88.956 50.2678 88.4767 50.2678 88.4767L50.2692 88.4753Z" fill="white" stroke="black" stroke-miterlimit="10"/>
<path d="M51.7053 83.1575C51.7053 83.1575 50.5766 84.6258 50.1833 86.4196L51.7053 83.1575Z" fill="white"/>
<path d="M51.7053 83.1575C51.7053 83.1575 50.5766 84.6258 50.1833 86.4196" stroke="black" stroke-miterlimit="10" stroke-linecap="round"/>
<path d="M73.3231 51.2712C73.3231 51.2712 73.9034 50.8612 74.7233 51.5026" stroke="#231F20" stroke-miterlimit="10" stroke-linecap="round"/>
<path d="M70.7859 51.3515C70.7859 51.3515 69.9397 50.7102 69.4521 51.5316" stroke="#231F20" stroke-miterlimit="10" stroke-linecap="round"/>
</svg>
